HIERARCHY
ROOT Hips
{
	OFFSET -0.001795 -0.223333 0.028219
	CHANNELS 6 Xposition Yposition Zposition Zrotation Yrotation Xrotation
	JOINT LeftUpLeg
	{
		OFFSET 0.069520 -0.091406 -0.006815
		CHANNELS 3 Zrotation Yrotation Xrotation
		JOINT LeftLeg
		{
			OFFSET 0.034277 -0.375199 -0.004496
			CHANNELS 3 Zrotation Yrotation Xrotation
			JOINT LeftFoot
			{
				OFFSET -0.013596 -0.397961 -0.043693
				CHANNELS 3 Zrotation Yrotation Xrotation
				JOINT LeftToe
				{
					OFFSET 0.026358 -0.055791 0.119288
					CHANNELS 3 Zrotation Yrotation Xrotation
					End Site
					{
						OFFSET 0.000000 0.000000 0.000000
					}
				}
			}
		}
	}
	JOINT RightUpLeg
	{
		OFFSET -0.067670 -0.090522 -0.004320
		CHANNELS 3 Zrotation Yrotation Xrotation
		JOINT RightLeg
		{
			OFFSET -0.038290 -0.382569 -0.008850
			CHANNELS 3 Zrotation Yrotation Xrotation
			JOINT RightFoot
			{
				OFFSET 0.015774 -0.398415 -0.042312
				CHANNELS 3 Zrotation Yrotation Xrotation
				JOINT RightToe
				{
					OFFSET -0.025372 -0.048144 0.123348
					CHANNELS 3 Zrotation Yrotation Xrotation
					End Site
					{
						OFFSET 0.000000 0.000000 0.000000
					}
				}
			}
		}
	}
	JOINT Spine
	{
		OFFSET -0.002533 0.108963 -0.026696
		CHANNELS 3 Zrotation Yrotation Xrotation
		JOINT Spine1
		{
			OFFSET 0.005487 0.135180 0.001092
			CHANNELS 3 Zrotation Yrotation Xrotation
			JOINT Spine2
			{
				OFFSET 0.001457 0.052922 0.025425
				CHANNELS 3 Zrotation Yrotation Xrotation
				JOINT Neck
				{
					OFFSET -0.002778 0.213870 -0.042857
					CHANNELS 3 Zrotation Yrotation Xrotation
					JOINT Head
					{
						OFFSET 0.005152 0.064970 0.051349
						CHANNELS 3 Zrotation Yrotation Xrotation
						End Site
						{
							OFFSET 0.000000 0.000000 0.000000
						}
					}
				}
				JOINT LeftShoulder
				{
					OFFSET 0.078845 0.121749 -0.034090
					CHANNELS 3 Zrotation Yrotation Xrotation
					JOINT LeftArm
					{
						OFFSET 0.090977 0.030469 -0.008868
						CHANNELS 3 Zrotation Yrotation Xrotation
						JOINT LeftForeArm
						{
							OFFSET 0.259612 -0.012772 -0.027456
							CHANNELS 3 Zrotation Yrotation Xrotation
							JOINT LeftHand
							{
								OFFSET 0.249234 0.008986 -0.001171
								CHANNELS 3 Zrotation Yrotation Xrotation
								End Site
								{
									OFFSET 0.000000 0.000000 0.000000
								}
							}
						}
					}
				}
				JOINT RightShoulder
				{
					OFFSET -0.081759 0.118833 -0.038615
					CHANNELS 3 Zrotation Yrotation Xrotation
					JOINT RightArm
					{
						OFFSET -0.096012 0.032551 -0.009143
						CHANNELS 3 Zrotation Yrotation Xrotation
						JOINT RightForeArm
						{
							OFFSET -0.253742 -0.013329 -0.021401
							CHANNELS 3 Zrotation Yrotation Xrotation
							JOINT RightHand
							{
								OFFSET -0.255298 0.007772 -0.005559
								CHANNELS 3 Zrotation Yrotation Xrotation
								End Site
								{
									OFFSET 0.000000 0.000000 0.000000
								}
							}
						}
					}
				}
			}
		}
	}
}
MOTION
Frames: 8
Frame Time: 0.050000
-0.420821 1.014392 -0.837230 -1.588663 24.079879 0.411234 0.725098 0.226995 6.443843 -4.853936 0.221546 2.910343 6.858342 14.414588 5.483704 0.000000 0.000000 0.000000 -1.675063 0.332958 -31.274848 6.498355 -2.772039 20.434287 -7.082865 -14.350867 25.286135 0.000000 0.000000 0.000000 -2.758320 -1.042151 18.512357 9.017298 -0.976125 -27.218087 -5.648195 -7.558127 31.151684 4.355775 -1.817459 -12.966029 0.000000 0.000000 0.000000 -32.029658 2.264617 -7.085683 -40.894075 -5.934575 -4.244728 -26.159961 -56.566252 16.298515 0.000000 0.000000 0.000000 22.424772 -3.285051 -0.786071 42.973044 -4.696916 -8.558857 13.821701 53.662242 11.157419 0.000000 0.000000 0.000000
-0.430266 1.018047 -0.857586 -2.453489 24.169177 -0.420722 1.954922 0.060095 5.342856 -5.282511 0.249164 2.199775 6.173836 14.613739 8.900386 0.000000 0.000000 0.000000 -2.422176 0.192039 -29.934244 7.585562 -3.360391 21.453580 -8.281633 -16.207227 23.481162 0.000000 0.000000 0.000000 -3.461336 -0.984610 18.835635 9.471927 -1.062533 -28.209213 -5.295487 -7.132913 32.271364 3.783753 -1.147795 -13.983611 0.000000 0.000000 0.000000 -32.049768 3.260406 -7.940813 -40.962692 -6.239510 -4.176487 -29.636188 -55.980226 17.983715 0.000000 0.000000 0.000000 21.627169 -3.817303 -0.951772 44.618121 -5.182819 -9.078367 15.794840 51.394841 11.716533 0.000000 0.000000 0.000000
-0.440244 1.023825 -0.876250 -3.284190 24.137353 -0.971222 3.085895 -0.079617 4.535737 -5.865930 0.274337 1.624609 6.463913 15.359680 9.955730 0.000000 0.000000 0.000000 -2.592120 0.184103 -29.405594 7.801313 -4.327306 26.661031 -8.407017 -16.856192 19.972727 0.000000 0.000000 0.000000 -3.819662 -0.898697 18.371823 9.865185 -1.171357 -28.442352 -4.793377 -7.519638 32.951921 2.200069 -0.032287 -13.603502 0.000000 0.000000 0.000000 -32.771838 3.936447 -8.422967 -40.998417 -5.956402 -4.344589 -31.372071 -56.338586 19.227867 0.000000 0.000000 0.000000 20.226236 -3.412854 -0.767657 45.756845 -6.326908 -9.659414 16.847547 50.377112 11.945716 0.000000 0.000000 0.000000
-0.450648 1.027972 -0.893596 -3.850872 24.055951 -0.861306 3.682731 -0.171232 2.900465 -6.102204 0.278897 1.536219 6.748191 16.213162 11.442902 0.000000 0.000000 0.000000 -2.543773 0.351736 -26.865098 7.943801 -5.386540 31.336961 -8.124328 -17.016707 15.664977 0.000000 0.000000 0.000000 -4.321027 -0.750029 17.495943 9.849578 -1.177455 -28.465839 -4.361254 -7.647019 33.177785 1.241706 0.887532 -15.096345 0.000000 0.000000 0.000000 -33.222716 4.524608 -8.957947 -40.989292 -6.002096 -4.330735 -31.012868 -55.618015 18.768109 0.000000 0.000000 0.000000 19.584981 -2.804715 -0.401873 46.994764 -6.413906 -9.920881 15.490055 48.922596 10.927083 0.000000 0.000000 0.000000
-0.461341 1.029885 -0.909663 -4.109174 24.651522 -0.614571 4.098715 -0.256467 1.139498 -6.321087 0.269943 1.358103 6.572913 16.092775 11.555745 0.000000 0.000000 0.000000 -2.373816 0.527684 -22.950291 7.323920 -6.322188 35.891101 -7.579468 -16.563448 12.645033 0.000000 0.000000 0.000000 -4.668163 -0.651943 16.700181 9.682854 -1.175952 -27.571605 -4.048599 -7.768014 32.372779 1.764162 0.383109 -13.730364 0.000000 0.000000 0.000000 -33.046932 4.216335 -8.899168 -40.983540 -5.620468 -4.326071 -30.441206 -54.750153 17.998622 0.000000 0.000000 0.000000 20.377095 -2.716877 -0.253319 47.719225 -6.140734 -9.946604 14.194932 48.076240 10.179968 0.000000 0.000000 0.000000
-0.471970 1.027612 -0.924444 -3.756480 23.569355 0.314010 4.272818 -0.305468 -0.414767 -6.868723 0.299506 0.760790 7.001282 16.956366 12.581935 0.000000 0.000000 0.000000 -1.974810 0.768235 -17.961370 6.015802 -6.052241 38.236812 -7.396780 -16.712528 11.229405 0.000000 0.000000 0.000000 -5.504165 -0.409431 15.273963 9.323214 -1.118795 -27.344059 -3.426246 -7.343323 32.440017 2.117739 0.227187 -14.790082 0.000000 0.000000 0.000000 -33.342116 4.797598 -9.325904 -40.835646 -4.726476 -4.608492 -29.361678 -53.456578 16.969701 0.000000 0.000000 0.000000 20.803003 -2.205644 0.015928 48.040813 -4.836747 -9.568428 14.276744 48.136415 10.219990 0.000000 0.000000 0.000000
-0.482182 1.022467 -0.938610 -3.313450 22.210063 0.861388 3.873503 -0.306175 -1.416655 -7.082358 0.319053 0.123592 7.842295 18.147218 13.011619 0.000000 0.000000 0.000000 -1.867816 0.742424 -12.502570 4.413824 -5.101056 38.877723 -6.571439 -15.439350 10.498302 0.000000 0.000000 0.000000 -6.407195 -0.231608 14.565213 8.700507 -0.998158 -27.063577 -2.482274 -6.219118 31.920192 1.854528 0.453850 -14.282180 0.000000 0.000000 0.000000 -33.384018 5.709210 -10.168060 -40.706611 -3.072580 -5.006816 -28.903034 -51.337610 15.885301 0.000000 0.000000 0.000000 20.853617 -1.826766 0.338000 48.735206 -3.526624 -9.217749 14.141755 48.903817 10.499715 0.000000 0.000000 0.000000
-0.492020 1.016045 -0.952985 -2.714060 20.203984 1.688150 3.652976 -0.370249 -3.186715 -7.863266 0.378328 -0.248674 8.530474 19.074518 13.058156 0.000000 0.000000 0.000000 -2.818314 0.361839 -5.687248 3.708588 -3.631728 35.006709 -5.336411 -13.197767 11.097090 0.000000 0.000000 0.000000 -6.854591 -0.083650 13.596280 8.426751 -0.896254 -27.873913 -2.141158 -4.306989 32.238666 2.108347 0.451497 -14.624171 0.000000 0.000000 0.000000 -33.082832 6.696142 -11.097964 -40.647818 -1.465773 -5.430094 -28.610709 -48.400811 14.597036 0.000000 0.000000 0.000000 22.168269 -0.703187 1.281386 48.317133 -1.601177 -8.610939 13.385762 50.780693 10.753683 0.000000 0.000000 0.000000
